<svg width="490" height="213" viewBox="0 0 490 213" fill="none" xmlns="http://www.w3.org/2000/svg">
<path d="M11.0156 108.312L39.4219 4.25H156.141L150.234 41.0938H71.9062L59.3906 82.0156C66.9844 77.1406 76.4062 74.6094 87.6562 74.4219C105.656 74.4219 119.484 80.6562 129.141 93.125C138.891 105.594 142.922 121.906 141.234 142.062C139.547 162.875 131.438 179.844 116.906 192.969C102.375 206 84.7969 212.328 64.1719 211.953C52.0781 211.672 41.0625 208.859 31.125 203.516C21.2812 198.172 13.6406 190.906 8.20312 181.719C2.76562 172.438 0.09375 162.078 0.1875 150.641H46.3125C46.5 157.953 48.3281 163.812 51.7969 168.219C55.2656 172.625 60.1406 174.922 66.4219 175.109C74.1094 175.391 80.4844 172.531 85.5469 166.531C90.6094 160.438 93.8438 151.203 95.25 138.828C96.1875 128.422 94.7812 120.547 91.0312 115.203C87.2812 109.766 81.4219 107.047 73.4531 107.047C63.2344 107.047 54.9375 110.516 48.5625 117.453L11.0156 108.312ZM226.172 211.812C214.547 211.531 204.375 208.812 195.656 203.656C187.031 198.406 180.375 190.766 175.688 180.734C171 170.609 168.469 159.125 168.094 146.281C167.812 139.344 168.094 132.359 168.938 125.328L174.281 89.6094C178.594 60.8281 187.828 38.8438 201.984 23.6562C216.141 8.375 234.188 0.96875 256.125 1.4375C273.938 1.8125 287.859 7.8125 297.891 19.4375C308.016 31.0625 313.453 46.9062 314.203 66.9688C314.391 73.9062 314.062 80.8906 313.219 87.9219L307.594 124.344C303.094 153.5 293.766 175.484 279.609 190.297C265.547 205.109 247.734 212.281 226.172 211.812ZM267.938 81.5938C268.781 75.0312 269.25 69.2656 269.344 64.2969C269.344 47.1406 263.906 38.2812 253.031 37.7188C236.344 36.875 225.984 51.1719 221.953 80.6094L214.5 131.234C213.562 139.016 213.094 144.781 213.094 148.531C212.625 165.875 218.016 174.875 229.266 175.531C246.234 176.375 256.688 161.703 260.625 131.516L267.938 81.5938ZM485.062 31.6719L384.094 209H333.469L434.016 40.8125H340.219L346.125 4.25H489.422L485.062 31.6719Z" fill="black"/>
</svg>
