<svg width="748" height="400" viewBox="0 0 748 400" fill="none" xmlns="http://www.w3.org/2000/svg">
<g filter="url(#filter0_i_1_4)">
<path d="M311.83 4.24651C309.782 1.56983 306.603 0 303.232 0H25C11.1929 0 0 11.1929 0 25V70.5414C0 84.3486 11.1929 95.5414 25 95.5414H180.475C201.135 95.5414 212.878 119.18 200.397 135.644L0 400L283.225 112.612C298.797 96.8108 287.603 70.0637 265.419 70.0637H80.3093C66.9419 70.0637 56.1054 59.2273 56.1054 45.8599V45.8599C56.1054 32.4925 66.9419 21.6561 80.3093 21.6561H303.232C312.204 21.6561 317.284 11.3708 311.83 4.24651V4.24651Z" fill="white"/>
<path d="M482.003 21.6561C472.85 21.6561 467.826 11.0036 473.648 3.94059V3.94059C475.705 1.44533 478.769 0 482.003 0H722.496C743.368 0 755.05 24.0666 742.138 40.4659L459.044 400L694.464 60.9137C705.974 44.3357 694.11 21.6561 673.928 21.6561H482.003Z" fill="white"/>
<path fill-rule="evenodd" clip-rule="evenodd" d="M369.727 99.2369C372.068 129.832 416.828 130.116 419.556 99.5524L426.012 27.2227C427.317 12.5963 415.795 0 401.111 0H389.121C374.562 0 363.083 12.3909 364.194 26.9071L369.727 99.2369ZM393.957 21.6561C400.928 21.6561 406.483 27.4854 406.147 34.4483L392.738 312.102L381.763 34.3415C381.49 27.418 387.028 21.6561 393.957 21.6561V21.6561Z" fill="white"/>
</g>
<defs>
<filter id="filter0_i_1_4" x="0" y="0" width="747.542" height="404" filterUnits="userSpaceOnUse" color-interpolation-filters="sRGB">
<feFlood flood-opacity="0" result="BackgroundImageFix"/>
<feBlend mode="normal" in="SourceGraphic" in2="BackgroundImageFix" result="shape"/>
<feColorMatrix in="SourceAlpha" type="matrix" values="0 0 0 0 0 0 0 0 0 0 0 0 0 0 0 0 0 0 127 0" result="hardAlpha"/>
<feOffset dy="4"/>
<feGaussianBlur stdDeviation="2"/>
<feComposite in2="hardAlpha" operator="arithmetic" k2="-1" k3="1"/>
<feColorMatrix type="matrix" values="0 0 0 0 0 0 0 0 0 0 0 0 0 0 0 0 0 0 0.25 0"/>
<feBlend mode="normal" in2="shape" result="effect1_innerShadow_1_4"/>
</filter>
</defs>
</svg>
