<svg width="501" height="532" viewBox="0 0 501 532" fill="none" xmlns="http://www.w3.org/2000/svg">
<g style="mix-blend-mode:difference">
<path d="M496.568 237.502L446.92 0.394287L207.13 34.8354L238.309 56.667C286.762 54.0734 336.408 67.065 379.238 97.0542C422.067 127.043 451.255 169.252 465.389 215.67L496.568 237.502Z" fill="black"/>
<path d="M135.467 445.194C225.948 508.549 350.658 486.56 414.013 396.079C441.869 356.297 453.226 309.898 449.518 265.007L500.106 288.597C498.783 335.808 484.087 383.175 454.971 424.757C375.776 537.859 219.89 565.346 106.788 486.151C-6.31283 406.957 -33.7998 251.071 45.3946 137.969C74.5234 96.3689 114.028 66.3511 157.962 48.9643L197.437 88.4386C153.961 100.3 114.221 126.848 86.3522 166.648C22.9967 257.129 44.9862 381.838 135.467 445.194Z" fill="black"/>
<path d="M499.329 260.65L444.788 235.217C433.888 189.176 406.704 146.806 364.898 117.533C323.113 88.2745 274.027 77.2177 227.056 82.7028L184.494 40.141C253.632 21.3537 330.3 32.2687 393.577 76.5753C456.872 120.895 493.353 189.233 499.329 260.65Z" fill="black"/>
</g>
</svg>
